<svg xmlns="http://www.w3.org/2000/svg" width="32" height="32" viewBox="0 0 32 32"><defs><style>.a{opacity:0;}</style></defs><g transform="translate(-34 -542)"><rect class="a" width="32" height="32" transform="translate(34 542)"/><g transform="translate(-681.295 291.225)"><path d="M719.295,252.775v24.658h3v3.342h22v-28ZM720.3,276.42V253.778h2.815v4.032a2.191,2.191,0,0,0,4.381,0v-1.451h-1.007v1.451a1.183,1.183,0,1,1-2.366,0v-4.032H739.86v17.867h-4.8v4.775Zm20.052-3.763-4.282,4.068v-4.068Zm2.932,7.1h-19.98v-2.329h13.485l4.076-3.871V253.778h2.419Z"/><rect width="5.407" height="1.012" transform="translate(730.333 257.309)"/><rect width="11.317" height="1.012" transform="translate(724.423 262.685)"/><rect width="11.317" height="1.012" transform="translate(724.423 266.269)"/><rect width="5.236" height="1.012" transform="translate(724.423 271.044)"/></g></g></svg>