<svg xmlns="http://www.w3.org/2000/svg" width="24" height="24" viewBox="0 0 24 24"><defs><style>.a,.b{fill:#fff;}.a{opacity:0;}</style></defs><g transform="translate(35 -414)"><rect class="a" width="24" height="24" transform="translate(-35 414)"/><rect class="a" width="16" height="16" transform="translate(-31 418)"/><g transform="translate(-253.362 -230.404)"><path class="b" d="M236.362,651.4h-1v11.5a1.493,1.493,0,0,1-.438,1.063,1.493,1.493,0,0,1-1.062.437h-8a1.47,1.47,0,0,1-.586-.117,1.486,1.486,0,0,1-.8-.8,1.471,1.471,0,0,1-.117-.586V651.4h-1v-1h4v-1a.97.97,0,0,1,.078-.39,1.011,1.011,0,0,1,.215-.317,1.029,1.029,0,0,1,.316-.215.989.989,0,0,1,.391-.078h3a.988.988,0,0,1,.39.078,1.033,1.033,0,0,1,.317.215,1.045,1.045,0,0,1,.215.317.987.987,0,0,1,.078.39v1h4Zm-2,0h-9v11.5a.505.505,0,0,0,.5.5h8a.507.507,0,0,0,.5-.5Zm-6,10h-1v-8h1Zm0-11h3v-1h-3Zm2,11h-1v-8h1Zm2,0h-1v-8h1Z"/></g></g></svg>