<svg xmlns="http://www.w3.org/2000/svg" width="32" height="32" viewBox="0 0 32 32"><defs><style>.a{opacity:0;}</style></defs><g transform="translate(1203 87)"><rect class="a" width="32" height="32" transform="translate(-1203 -87)"/><g transform="translate(-1905.465 -697.067)"><rect width="1" height="1.711" transform="translate(710.633 617.81)"/><rect width="1" height="1.711" transform="translate(714.801 617.81)"/><rect width="1" height="1.72" transform="translate(710.633 622.586)"/><rect width="1" height="1.72" transform="translate(714.801 622.586)"/><rect width="1" height="1.72" transform="translate(710.633 627.362)"/><rect width="1" height="1.72" transform="translate(714.801 627.362)"/><rect width="1" height="1.711" transform="translate(710.633 632.146)"/><rect width="1" height="1.711" transform="translate(714.801 632.146)"/><rect width="1.009" height="1.72" transform="translate(722.789 622.586)"/><rect width="1.009" height="1.72" transform="translate(722.789 627.362)"/><path d="M727.654,636.967l.258-.063a3.33,3.33,0,0,0-.009-6.478l-.258-.063V617.792h-7.667v-3.333h-1.357v-2.392h-10.79v2.392h-1.366v25.608l23.973-.009v-1h-2.784Zm-8.685,2.087H707.474V615.472h1.356v-2.393h8.783v2.393h1.356Zm7.676,0h-6.667V618.8h6.667v11.567l-.259.063a3.331,3.331,0,0,0,0,6.478l.259.063Zm-1.812-5.384a2.316,2.316,0,1,1,2.321,2.32A2.327,2.327,0,0,1,724.833,633.67Z"/></g></g></svg>