<svg xmlns="http://www.w3.org/2000/svg" width="32" height="32" viewBox="0 0 32 32"><defs><style>.a{opacity:0;}</style></defs><g transform="translate(-34 -276)"><rect class="a" width="32" height="32" transform="translate(34 276)"/><g transform="translate(-625.51 -195.946)"><g transform="translate(683.59 489.187)"><rect width="1.12" height="1.92"/></g><g transform="translate(683.59 493.926)"><rect width="1.12" height="1.92"/></g><g transform="translate(666.3 487.365)"><rect width="1.13" height="1.91"/></g><g transform="translate(666.3 492.103)"><rect width="1.13" height="1.92"/></g><g transform="translate(661.51 473.946)"><path d="M687.96,500.942V485.28h-2.984v-5l-4.041-.036L679,479.277V476.7h-2.984v-2.751H675V476.7H672.02v2.58l-2.392,1.192v2.8H663.06v17.678h-1.55v1h28v-1Zm-18.332,0h-5.564V484.268h5.564Zm10.752,0h-9.74V481.1l2.383-1.2v-2.2H678v2.2l2.383,1.2Zm1.012-19.658h2.572v4h-2.572Zm5.564,19.658h-5.564V486.284h5.564Z" transform="translate(-661.51 -473.946)"/></g><g transform="translate(673.161 484.448)"><rect width="1.13" height="1.91"/></g><g transform="translate(676.729 484.448)"><rect width="1.13" height="1.91"/></g><g transform="translate(673.161 489.187)"><rect width="1.13" height="1.92"/></g><g transform="translate(676.729 489.187)"><rect width="1.13" height="1.92"/></g><g transform="translate(673.161 493.926)"><rect width="1.13" height="1.92"/></g><g transform="translate(676.729 493.926)"><rect width="1.13" height="1.92"/></g></g></g></svg>