<svg xmlns="http://www.w3.org/2000/svg" width="24" height="24" viewBox="0 0 24 24"><defs><style>.a{opacity:0;}</style></defs><g transform="translate(35 -414)"><rect class="a" width="24" height="24" transform="translate(-35 414)"/><rect class="a" width="16" height="16" transform="translate(-31 418)"/><path d="M468.762,404.4v12h-16v-12h4.289l1-1h5.422l1,1Zm-1,1h-3.711l-1-1h-4.578l-1,1h-3.711v10h14Zm-12.5,1a.507.507,0,1,1-.352.149A.48.48,0,0,1,455.262,406.4Zm5.5,0a3.928,3.928,0,0,1,1.558.313,3.973,3.973,0,0,1,2.129,2.129,4.037,4.037,0,0,1,0,3.117,3.982,3.982,0,0,1-2.129,2.129,4.049,4.049,0,0,1-3.117,0,3.99,3.99,0,0,1-2.129-2.129,4.048,4.048,0,0,1,0-3.117,3.981,3.981,0,0,1,2.129-2.129A3.925,3.925,0,0,1,460.762,406.4Zm0,7a2.882,2.882,0,0,0,1.164-.238,3.034,3.034,0,0,0,1.6-1.6,2.954,2.954,0,0,0,0-2.328,3.027,3.027,0,0,0-1.6-1.6,2.954,2.954,0,0,0-2.328,0,3.034,3.034,0,0,0-1.6,1.6,2.965,2.965,0,0,0,0,2.328,3.04,3.04,0,0,0,1.6,1.6A2.875,2.875,0,0,0,460.762,413.4Z" transform="translate(-483.362 15.596)"/></g></svg>