<svg xmlns="http://www.w3.org/2000/svg" width="32" height="32" viewBox="0 0 32 32"><defs><style>.a{opacity:0;}</style></defs><g transform="translate(-2472 93)"><rect class="a" width="32" height="32" transform="translate(2472 -93)"/><g transform="translate(1550.26 -448.72)"><g transform="translate(923.74 364.72)"><path d="M945.809,370.11l-3.2-5.39H929.68l-3.037,5.229-2.9,1.017v5.711H927.2l.063.259a2.993,2.993,0,0,0,5.815,0l.063-.259h9.193l.063.259a2.993,2.993,0,0,0,5.815,0l.063-.259h3.468v-5.8Zm-9.13-4.39h5.358l2.572,4.337h-7.93Zm-5.009,0h4v4.337h-4Zm-1.5,12.492a1.972,1.972,0,1,1,1.98-1.972A1.984,1.984,0,0,1,930.173,378.212Zm15.125,0a1.972,1.972,0,1,1,1.989-1.972A1.977,1.977,0,0,1,945.3,378.212Zm5.43-2.543h-2.482l-.072-.241a2.992,2.992,0,0,0-5.752,0l-.072.241h-9.229l-.072-.241a2.992,2.992,0,0,0-5.752,0l-.072.241h-2.482v-4l2.581-.9,2.934-5.051h.4v5.336h14.65l5.421.7Z" transform="translate(-923.74 -364.72)"/></g></g></g></svg>