<svg xmlns="http://www.w3.org/2000/svg" width="24" height="24" viewBox="0 0 24 24"><defs><style>.a,.b{fill:#eea616;}.a{opacity:0;}</style></defs><rect class="a" width="24" height="24"/><rect class="a" width="16" height="16" transform="translate(4 4)"/><path class="b" d="M441.562,418.4a7.831,7.831,0,0,1-2.129-.285,8.074,8.074,0,0,1-1.91-.8,7.986,7.986,0,0,1-2.871-2.871,8.034,8.034,0,0,1-.805-1.914,8.065,8.065,0,0,1,0-4.25,8.069,8.069,0,0,1,.805-1.914,7.986,7.986,0,0,1,2.871-2.871,8.136,8.136,0,0,1,1.914-.8,8.065,8.065,0,0,1,4.25,0,8.155,8.155,0,0,1,1.914.8,7.986,7.986,0,0,1,2.871,2.871,8.153,8.153,0,0,1,.805,1.914,8.079,8.079,0,0,1,0,4.254,8.14,8.14,0,0,1-.805,1.91,7.986,7.986,0,0,1-2.871,2.871,8.069,8.069,0,0,1-1.914.8A7.85,7.85,0,0,1,441.562,418.4Zm0-15a6.881,6.881,0,0,0-1.855.25,7.03,7.03,0,0,0-4.895,4.9,7.011,7.011,0,0,0,0,3.711,7.03,7.03,0,0,0,4.895,4.894,7.007,7.007,0,0,0,3.71,0,6.945,6.945,0,0,0,1.672-.707,7.025,7.025,0,0,0,3.223-4.187,7.011,7.011,0,0,0,0-3.711,7.03,7.03,0,0,0-4.9-4.9A6.88,6.88,0,0,0,441.562,403.4Zm0,7v-5h-1v6h4v-1Z" transform="translate(-429.562 -398.404)"/></svg>