<svg xmlns="http://www.w3.org/2000/svg" width="32" height="32" viewBox="0 0 32 32"><defs><style>.a{opacity:0;}</style></defs><g transform="translate(-34 -208)"><rect class="a" width="32" height="32" transform="translate(34 208)"/><g transform="translate(-584.52 -96.825)"><path d="M634.02,306.825a9.489,9.489,0,0,0-9.5,9.462v18.538h19V316.287A9.495,9.495,0,0,0,634.02,306.825Zm3.095,26.988h-6.19v-4.122h6.19Zm5.4-8.719h-2.33v1.013h2.33v7.706h-4.39v-5.135h-8.2v5.135h-4.39V316.287a8.492,8.492,0,0,1,16.984,0Z"/><path d="M634.02,310.776a5.46,5.46,0,0,0-5.461,5.448v5.7h10.922v-5.7A5.46,5.46,0,0,0,634.02,310.776Zm-.5,10.143h-3.949v-3.763h3.949Zm0-4.776h-3.967l.045-.367a4.486,4.486,0,0,1,3.508-3.9l.414-.08Zm4.957,4.776h-3.949v-3.763h3.949Zm-3.949-4.776V311.8l.405.08a4.484,4.484,0,0,1,3.517,3.9l.036.367Z"/></g></g></svg>