<svg xmlns="http://www.w3.org/2000/svg" width="16" height="8" viewBox="0 0 16 8"><defs><style>.a{fill:#bbb;}</style></defs><path class="a" d="M249.562,350.4a8.576,8.576,0,0,1,2.281.305,10.593,10.593,0,0,1,2.129.84,11.576,11.576,0,0,1,1.922,1.269,14.927,14.927,0,0,1,1.668,1.586,14.1,14.1,0,0,1-1.668,1.59,11.684,11.684,0,0,1-1.922,1.266,10.656,10.656,0,0,1-2.129.84,8.71,8.71,0,0,1-4.562,0,10.656,10.656,0,0,1-2.129-.84,11.8,11.8,0,0,1-1.926-1.266,13.472,13.472,0,0,1-1.664-1.59,14.226,14.226,0,0,1,1.664-1.586,11.693,11.693,0,0,1,1.926-1.269,10.593,10.593,0,0,1,2.129-.84A8.576,8.576,0,0,1,249.562,350.4Zm-6.617,4a13.448,13.448,0,0,0,1.562,1.3,9.12,9.12,0,0,0,1.774.988,3.861,3.861,0,0,1-.535-1.089,4,4,0,0,1,0-2.4,3.881,3.881,0,0,1,.535-1.09,9.179,9.179,0,0,0-1.774.989A13.544,13.544,0,0,0,242.945,354.4Zm9.617,0a2.9,2.9,0,0,0-.238-1.164,3.034,3.034,0,0,0-1.6-1.6,2.954,2.954,0,0,0-2.328,0,3.034,3.034,0,0,0-1.6,1.6,2.965,2.965,0,0,0,0,2.328,3.04,3.04,0,0,0,1.6,1.6,2.965,2.965,0,0,0,2.328,0,3.04,3.04,0,0,0,1.6-1.6A2.892,2.892,0,0,0,252.562,354.4Zm-3,1a.972.972,0,0,1-.391-.078,1.023,1.023,0,0,1-.531-.531,1.016,1.016,0,0,1,0-.781,1.02,1.02,0,0,1,.531-.532,1.019,1.019,0,0,1,.782,0,1.041,1.041,0,0,1,.316.215,1.028,1.028,0,0,1,.215.317,1.016,1.016,0,0,1,0,.781,1.023,1.023,0,0,1-.531.531A.972.972,0,0,1,249.562,355.4Zm3.281,1.289a9.179,9.179,0,0,0,1.774-.988,13.617,13.617,0,0,0,1.562-1.3,13.716,13.716,0,0,0-1.562-1.3,9.239,9.239,0,0,0-1.774-.989,3.881,3.881,0,0,1,.535,1.09,4,4,0,0,1,0,2.4A3.862,3.862,0,0,1,252.843,356.693Z" transform="translate(-241.562 -350.404)"/></svg>