<svg xmlns="http://www.w3.org/2000/svg" width="32" height="32" viewBox="0 0 32 32"><defs><style>.a{opacity:0;}</style></defs><g transform="translate(1139 130)"><rect class="a" width="32" height="32" transform="translate(-1139 -130)"/><g transform="translate(-1855.465 -707.265)"><path d="M740.6,589.444h-4.793l-.1-.126a4.14,4.14,0,0,0-.663-.654l-.125-.107v-3.88h-1.954v-4.4H737.3v-1.012h-9.668v1.012h4.328v4.4H730v3.88l-.126.107a4.091,4.091,0,0,0-.654.654l-.1.126h-6.281v-4.767h-4.372v14.461h4.372v-4.766h6.281l.1.125a4.148,4.148,0,0,0,6.5,0l.1-.125H740.6a.937.937,0,0,1,.932.931v2.581h4.928V595.3A5.862,5.862,0,0,0,740.6,589.444Zm-18.78,8.691h-2.356V585.689h2.356Zm6.612-5.188.108.421h-5.708v-2.912h5.708l-.108.412a4.1,4.1,0,0,0,0,2.079Zm2.572-7.258h2.912v2.3l-.421-.107a4.035,4.035,0,0,0-2.07,0l-.421.107Zm1.452,9.372a3.149,3.149,0,1,1,3.153-3.153A3.156,3.156,0,0,1,732.461,595.061Zm12.992,1.81h-2.912V595.3a1.928,1.928,0,0,0-1.936-1.935h-4.22l.108-.421a4.385,4.385,0,0,0,0-2.079l-.108-.412h4.22a4.845,4.845,0,0,1,4.848,4.847Z"/><path d="M744.315,600.912l-.314-.259-.323.259c-.089.072-2.141,1.8-2.141,3.889a2.464,2.464,0,0,0,4.928,0C746.465,602.7,744.4,600.984,744.315,600.912ZM744,606.261a1.46,1.46,0,0,1-1.46-1.46,4.262,4.262,0,0,1,1.209-2.545l.251-.286.251.286a4.256,4.256,0,0,1,1.2,2.545A1.459,1.459,0,0,1,744,606.261Z"/></g></g></svg>