<svg xmlns="http://www.w3.org/2000/svg" width="60" height="57" viewBox="0 0 60 57"><g transform="translate(-464.81 -393.22)"><g transform="translate(464.81 420.96)"><path d="M520.6,439.85H518.13l.931-1.66a3.749,3.749,0,0,0,.24-1.34,4.119,4.119,0,0,0-4.195-4.03H503.147l-12.49-11.97a7.988,7.988,0,0,0-5.572-2.21H464.81v20.47h13.242l17.6,8.79H520.6a4.029,4.029,0,1,0,0-8.05ZM505.37,435.5l-.9-1.66h10.638a3.008,3.008,0,1,1,0,6.01H504.467l.9-1.66A3.97,3.97,0,0,0,505.37,435.5Zm-33.224,2.6h-6.282V419.66h6.282Zm48.459,8.78H495.916L478.3,438.1h-5.1V419.66h11.885a6.914,6.914,0,0,1,4.821,1.9l13.722,13.16a2.918,2.918,0,0,1,0,4.25,3.3,3.3,0,0,1-4.435,0l-12.8-12.26-.751.71,12.8,12.27a4.3,4.3,0,0,0,2.922,1.18H520.6a3.008,3.008,0,1,1,0,6.01Z" transform="translate(-464.81 -418.64)"/></g><g transform="translate(488.055 393.22)"><path d="M519.16,396.37a10.713,10.713,0,0,0-14.43-.68l-.8.66-.8-.66a10.726,10.726,0,0,0-14.44.68,10.755,10.755,0,0,0,0,15.18l15.24,15.23,15.23-15.23a10.743,10.743,0,0,0,0-15.18Zm-.72,14.46-14.51,14.52-14.52-14.52a9.741,9.741,0,0,1,0-13.75,9.853,9.853,0,0,1,3.15-2.11,9.782,9.782,0,0,1,10.6,2.11l.39.42.38.43.38-.43q.2-.225.39-.42a9.719,9.719,0,1,1,13.74,13.75Z" transform="translate(-485.555 -393.22)"/></g></g></svg>