<svg xmlns="http://www.w3.org/2000/svg" xmlns:xlink="http://www.w3.org/1999/xlink" width="32" height="32" viewBox="0 0 32 32"><defs><style>.a{fill:none;}.b{clip-path:url(#a);}.c{opacity:0;}</style><clipPath id="a"><rect class="a" width="32" height="32"/></clipPath></defs><g class="b"><rect class="c" width="32" height="32"/><g transform="translate(-802.332 -569.502)"><path d="M830.239,571.5l-4.774,2.093-.884,2.554-8.356,8.347-2.391-2.391-.722.712,1.2,1.2-9.98,9.98,5.513,5.5,9.971-9.98,1.2,1.2.713-.722-2.391-2.391,8.482-8.428,2.419-.812,2.093-4.774Zm-20.394,26.565L805.767,594l9.258-9.259,4.079,4.07Zm19.645-20.519-2.292.767-8.582,8.572-1.669-1.669,8.572-8.582.767-2.292,3.727-1.633,1.11,1.11Z"/></g></g></svg>