<svg xmlns="http://www.w3.org/2000/svg" width="32" height="32" viewBox="0 0 32 32"><defs><style>.a{opacity:0;}</style></defs><g transform="translate(1396 104)"><rect class="a" width="32" height="32" transform="translate(-1396 -104)"/><g transform="translate(-2129.255 -513.592)"><path d="M763.47,417.658a2.684,2.684,0,0,0-3.8,0L757.8,419.54v-7.948H744.06l-5.8,5.815v22.185H757.8V427.174l5.671-5.708A2.7,2.7,0,0,0,763.47,417.658Zm-18.847-5.214v5.537H739.1Zm12.165,26.145H739.257v-19.6h6.377V412.6h11.154v7.956l-2.451,2.473H742.5v1h10.832l-2.943,2.966H742.5v1.012H750.1l-.609,2.966H742.5v1h6.476l5.116-1.066,2.692-2.724Zm-5.25-11.317,2.37,2.384-.3.313-.116.036-2.907.6.626-3.011Zm3.086,1.667-2.38-2.383,5.957-5.995,2.389,2.384Zm8.139-8.189-1.467,1.478-2.379-2.383,1.467-1.479a1.682,1.682,0,0,1,2.871,1.192A1.676,1.676,0,0,1,762.763,420.75Z"/></g></g></svg>