<svg xmlns="http://www.w3.org/2000/svg" width="32" height="32" viewBox="0 0 32 32"><defs><style>.a{opacity:0;}</style></defs><g transform="translate(1228 155)"><rect class="a" width="32" height="32" transform="translate(-1228 -155)"/><g transform="translate(-1873.522 -732.145)"><path d="M671.444,606.141a2.033,2.033,0,0,1-2.055-2.016v-3.36a3.083,3.083,0,0,0-6.165,0v2.518a2.915,2.915,0,0,1-5.828,0v-2.858h1.717V599.7a6.613,6.613,0,0,1,1.927-4.426,5.475,5.475,0,0,0,1.5-3.754v-2.85h1.709V584.3h-3.426v-5.152H659.8V584.3h-5.827v-5.152h-1.023V584.3h-3.426v4.372h1.708v2.85a5.439,5.439,0,0,0,1.5,3.754,6.609,6.609,0,0,1,1.928,4.426v.726h1.717v2.858a3.938,3.938,0,0,0,7.874,0v-2.518a2.055,2.055,0,0,1,4.11,0v3.36a3.053,3.053,0,0,0,3.087,3.02h3.078v-1Zm-20.9-18.484v-2.348h12.679v2.348Zm5.143,11.764-.027-.313a7.684,7.684,0,0,0-2.184-4.516,4.463,4.463,0,0,1-1.214-3.073v-2.85h9.243v2.85a4.427,4.427,0,0,1-1.224,3.073,7.725,7.725,0,0,0-2.174,4.525l-.027.3Z"/><rect width="1.023" height="1.012" transform="translate(656.373 591.017)"/></g></g></svg>