<svg xmlns="http://www.w3.org/2000/svg" width="32" height="32" viewBox="0 0 32 32"><defs><style>.a{opacity:0;}</style></defs><g transform="translate(1251 114)"><rect class="a" width="32" height="32" transform="translate(-1251 -114)"/><g transform="translate(-1913.475 -732.08)"><path d="M686.022,623.323c-5.03,0-7.3-2.441-8.043-3.243A9.531,9.531,0,0,1,675.553,622a11.438,11.438,0,0,1-5.625,1.324h-2.453v10.7a14.557,14.557,0,0,0,10.344,14l.152.054.16-.054a14.557,14.557,0,0,0,10.344-14v-10.7Zm1.458,10.7a13.571,13.571,0,0,1-9.394,12.946l-.115.036-.107-.036a13.571,13.571,0,0,1-9.394-12.946v-9.685h1.458a11.755,11.755,0,0,0,7.829-2.648l.214-.19.222.19a11.755,11.755,0,0,0,7.829,2.648h1.458Z"/><path d="M677.971,626.765a7.266,7.266,0,1,0,7.171,7.261A7.225,7.225,0,0,0,677.971,626.765Zm0,13.513a6.253,6.253,0,1,1,6.167-6.252A6.212,6.212,0,0,1,677.971,640.278Z"/><path d="M681.428,632.936l-4.284,4.342-2.622-2.649.711-.721,1.911,1.937,3.573-3.631Z"/></g></g></svg>