<svg xmlns="http://www.w3.org/2000/svg" width="32" height="32" viewBox="0 0 32 32"><defs><style>.a{opacity:0;}</style></defs><g transform="translate(-2366 141)"><rect class="a" width="32" height="32" transform="translate(2366 -141)"/><g transform="translate(1546.01 -450.18)"><g transform="translate(821.99 311.18)"><path d="M847.982,328.029l-.874.485a2.053,2.053,0,0,1-2.006-.017l-1.078-.621a3.1,3.1,0,0,0-2.576-.221l-.455.162V315.145a3.094,3.094,0,0,1,3.164-3.012h1.079v-.953h-1.079A4.069,4.069,0,0,0,840,315.145v1.625h-7.675v-1.625a3.092,3.092,0,0,1,3.155-3.012h1.079v-.953h-1.079a4.069,4.069,0,0,0-4.163,3.965v13.666l-.455-.179a1.514,1.514,0,0,1-.294-.136l-1.079-.621a3.1,3.1,0,0,0-3.031-.008l-1.159.647a2.014,2.014,0,0,1-2-.017l-.793-.451-.517.825.793.451a3.082,3.082,0,0,0,3.022.017l1.159-.647a2.031,2.031,0,0,1,2.006.008l1.079.621a3.167,3.167,0,0,0,3.031.017l1.159-.647a2.031,2.031,0,0,1,2.005.008l1.079.621a3.082,3.082,0,0,0,3.022.017l1.159-.647a1.988,1.988,0,0,1,1-.264,2.03,2.03,0,0,1,1.007.272l1.087.621a3.061,3.061,0,0,0,3.022.017l.874-.485Zm-7.987.4-.169.085a2,2,0,0,1-.98.255,2.03,2.03,0,0,1-1.007-.272l-1.087-.621a3.082,3.082,0,0,0-3.022-.008l-1.408.783v-5.208H840Zm0-5.948h-7.675v-4.748H840Z" transform="translate(-821.99 -311.18)"/></g><g transform="translate(821.99 332.343)"><path d="M848.49,336.67l-.874.57a2.723,2.723,0,0,1-3.022-.01l-1.087-.73a1.771,1.771,0,0,0-2.006-.02l-1.159.76a2.687,2.687,0,0,1-3.022-.01l-1.079-.73a1.832,1.832,0,0,0-1.016-.32,1.8,1.8,0,0,0-.989.3l-1.159.76a2.7,2.7,0,0,1-3.031-.01l-1.079-.73a1.771,1.771,0,0,0-2.006-.02l-1.159.76a2.687,2.687,0,0,1-3.022-.01l-.793-.54.517-.96.793.53a1.757,1.757,0,0,0,2,.01l1.159-.76a2.7,2.7,0,0,1,3.031.02l1.079.73a1.771,1.771,0,0,0,2.005.01l1.159-.76a2.687,2.687,0,0,1,3.022.02l1.087.73a1.771,1.771,0,0,0,2.006.01l1.15-.76a2.7,2.7,0,0,1,3.031.02l1.078.73a1.771,1.771,0,0,0,2.006.01l.874-.57Z" transform="translate(-821.99 -335.055)"/></g><g transform="translate(821.99 336.532)"><path d="M848.49,341.4l-.874.57a2.723,2.723,0,0,1-3.022-.02l-1.087-.73a1.789,1.789,0,0,0-2.006-.01l-1.159.76a2.669,2.669,0,0,1-3.022-.02l-1.079-.73a1.8,1.8,0,0,0-2.005-.01l-1.159.76a2.684,2.684,0,0,1-3.031-.02l-1.079-.73a1.771,1.771,0,0,0-2.006-.01l-1.159.76a2.669,2.669,0,0,1-3.022-.02l-.793-.53.517-.96.793.53a1.774,1.774,0,0,0,2,.01l1.159-.76a2.684,2.684,0,0,1,3.031.02l1.079.73a1.789,1.789,0,0,0,2.005.01l1.159-.76a2.669,2.669,0,0,1,3.022.02l1.087.73a1.789,1.789,0,0,0,2.006.01l1.15-.76a2.684,2.684,0,0,1,3.031.02l1.078.73a1.789,1.789,0,0,0,2.006.01l.874-.57Z" transform="translate(-821.99 -339.781)"/></g></g></g></svg>