<svg xmlns="http://www.w3.org/2000/svg" width="32" height="32" viewBox="0 0 32 32"><defs><style>.a{opacity:0;}</style></defs><g transform="translate(-2366 141)"><rect class="a" width="32" height="32" transform="translate(2366 -141)"/><g transform="translate(1446.88 -448.43)"><g transform="translate(922.12 309.43)"><path d="M941.154,332.641h6.966l-3.812-6.812h1.884l-3.317-5.923h1.739l-5.876-10.476-4.046,7.2-.3-.181a6.693,6.693,0,0,0-3.452-.961,6.789,6.789,0,0,0-6.759,6.8,6.549,6.549,0,0,0,.063.943l.027.19-.153.127a5.474,5.474,0,0,0,3.434,9.705,5.372,5.372,0,0,0,2.4-.553l.487-.245v3.946H926.4v1.025h17.682v-1.025h-2.929Zm-2.415-21.134,4.137,7.383h-1.73l3.308,5.914h-1.875l3.812,6.812h-8.129l.406-.544a5.383,5.383,0,0,0,1.091-3.283,5.457,5.457,0,0,0-2-4.236l-.144-.127.027-.181a8.459,8.459,0,0,0,.063-.952,6.765,6.765,0,0,0-2.019-4.834l-.18-.181Zm-8.3,19.22v.444l-.135.1a4.383,4.383,0,0,1-2.749.971,4.461,4.461,0,0,1-2.442-8.163l.288-.19-.072-.345a5.75,5.75,0,1,1,11.355-1.252,5.725,5.725,0,0,1-.135,1.252l-.072.345.288.19a4.457,4.457,0,0,1-2.433,8.163,4.408,4.408,0,0,1-2.758-.971l-.126-.1v-.444l3.217-3.238-.721-.726-3,3.029-3.01-3.029-.712.726Zm5.578,5.678h-4.569V332.46l.487.245a5.4,5.4,0,0,0,3.668.408l.414-.109Zm4.128,0h-3.118v-3.764h3.118Z" transform="translate(-922.12 -309.43)"/></g></g></g></svg>