<svg xmlns="http://www.w3.org/2000/svg" width="63" height="77" viewBox="0 0 63 77"><g transform="translate(-165 -280)"><g transform="translate(-239.06 -122.15)"><g transform="translate(404.06 419.15)"><path d="M441.375,445.143l.239-1.023h7.446V432.58a13.442,13.442,0,0,0-13.4-13.43H417.457a13.455,13.455,0,0,0-13.4,13.43V444.12h7.457l.228,1.023a15.144,15.144,0,0,0,2.513,5.562l1.111,1.534-1.817.49a12.9,12.9,0,0,0-9.492,12.438V479.15h45V465.167a12.888,12.888,0,0,0-9.482-12.438l-1.828-.49,1.111-1.534A14.978,14.978,0,0,0,441.375,445.143Zm6.636-2.077h-6.252v-9.955h6.252ZM437.158,420.3a12.446,12.446,0,0,1,10.676,10.226l.26,1.523h-6.48l-.239-1.012a15.305,15.305,0,0,0-5.2-8.431l-3.453-2.59Zm3.49,12.856.166,1.93-1.838-.563a13.775,13.775,0,0,1-6.439-4.216l-.405-.47-.395.47a13.8,13.8,0,0,1-18.434,2.3l-.717-.5.2-.856a14.129,14.129,0,0,1,27.864,1.91Zm-29.276,9.9-6.252.01v-9.955h6.252Zm.145-11.009h-6.48l.26-1.523A12.435,12.435,0,0,1,415.972,420.3l4.429-.284-3.453,2.59a15.422,15.422,0,0,0-5.2,8.431Zm36.494,33.12v12.918H405.119V465.167a11.793,11.793,0,0,1,11.05-11.791l.5-.031.395.313a15.118,15.118,0,0,0,19.005,0l.384-.313.5.031A11.8,11.8,0,0,1,448.011,465.167Zm-21.446-9.2a14.193,14.193,0,0,1-14.145-14.2v-8.3l1.9,1a14.83,14.83,0,0,0,16.939-2.16l.872-.8.872.8a14.839,14.839,0,0,0,6.688,3.5l1.007.23v5.729a14.327,14.327,0,0,1-.582,4.038l-.28.939H427.863v1.054H439.6l-1.423,2.045A14.116,14.116,0,0,1,426.565,455.964Z" transform="translate(-404.06 -419.15)"/></g></g><g transform="translate(-359.474 -123.395)"><path d="M585.9,405.01a5.274,5.274,0,0,0-7.229-.347l-.2.174-.2-.174a5.262,5.262,0,0,0-7.22.347,5.593,5.593,0,0,0,0,7.775l7.424,7.609,7.432-7.609A5.593,5.593,0,0,0,585.9,405.01Zm-.729,7.028-6.7,6.863-6.695-6.863a4.51,4.51,0,0,1,0-6.281,4.262,4.262,0,0,1,6.135,0,1.8,1.8,0,0,1,.178.191l.382.444.39-.444c.06-.07.11-.13.17-.191a4.271,4.271,0,0,1,6.142,0A4.527,4.527,0,0,1,585.172,412.039Z"/></g></g></svg>