<svg xmlns="http://www.w3.org/2000/svg" width="24" height="24" viewBox="0 0 24 24"><defs><style>.a{opacity:0;}</style></defs><g transform="translate(-323 -381)"><rect class="a" width="24" height="24" transform="translate(323 381)"/><path d="M964.562,1777.4a7.931,7.931,0,0,1,2.125.285,8.151,8.151,0,0,1,1.914.805,7.987,7.987,0,0,1,2.871,2.871,8.169,8.169,0,0,1,.8,1.914,8.064,8.064,0,0,1,0,4.25,8.116,8.116,0,0,1-.8,1.914,7.987,7.987,0,0,1-2.871,2.871,8.025,8.025,0,0,1-1.914.805,8.064,8.064,0,0,1-4.25,0,8.008,8.008,0,0,1-1.914-.805,7.986,7.986,0,0,1-2.871-2.871,8.058,8.058,0,0,1-.8-1.91,8.08,8.08,0,0,1,0-4.254,8.087,8.087,0,0,1,.8-1.914,7.986,7.986,0,0,1,2.871-2.871,8.157,8.157,0,0,1,1.91-.805A7.912,7.912,0,0,1,964.562,1777.4Zm-7,8a6.886,6.886,0,0,0,.289,2h2.836q-.063-.5-.094-1t-.031-1q0-.507.031-1t.094-1h-2.836A6.9,6.9,0,0,0,957.562,1785.4Zm4.711-6.617a6.748,6.748,0,0,0-1.258.586,7.375,7.375,0,0,0-1.117.82,7.207,7.207,0,0,0-.938,1.02,6.651,6.651,0,0,0-.718,1.191h2.6q.094-.468.219-.945a9.438,9.438,0,0,1,.3-.941,8.5,8.5,0,0,1,.4-.9A6.669,6.669,0,0,1,962.273,1778.787Zm-4.031,9.617a6.62,6.62,0,0,0,.718,1.192,7.043,7.043,0,0,0,.938,1.019,7.251,7.251,0,0,0,1.117.821,6.621,6.621,0,0,0,1.258.585,6.459,6.459,0,0,1-.508-.828,8.3,8.3,0,0,1-.4-.9,9.357,9.357,0,0,1-.3-.941q-.125-.477-.219-.946Zm9.187-1c.042-.333.074-.665.1-1s.035-.665.035-1-.012-.673-.035-1-.056-.662-.1-1H961.7c-.042.334-.074.666-.1,1s-.035.666-.035,1,.012.674.035,1,.056.663.1,1Zm-2.867-9a1.314,1.314,0,0,0-.715.211,2.584,2.584,0,0,0-.613.555,4.327,4.327,0,0,0-.5.777,9.268,9.268,0,0,0-.395.879q-.171.445-.289.86t-.179.718h5.39c-.042-.2-.1-.442-.179-.718s-.175-.563-.289-.86a9.269,9.269,0,0,0-.4-.879,4.327,4.327,0,0,0-.5-.777,2.6,2.6,0,0,0-.613-.555A1.316,1.316,0,0,0,964.562,1778.4Zm0,14a1.308,1.308,0,0,0,.715-.211,2.576,2.576,0,0,0,.613-.554,4.337,4.337,0,0,0,.5-.778,9.267,9.267,0,0,0,.4-.879c.114-.3.211-.583.289-.859s.137-.516.179-.719h-5.39c.041.2.1.444.179.719s.175.563.289.859a9.266,9.266,0,0,0,.395.879,4.337,4.337,0,0,0,.5.778,2.558,2.558,0,0,0,.613.554A1.306,1.306,0,0,0,964.562,1792.4Zm6.32-10a6.709,6.709,0,0,0-.718-1.191,7.207,7.207,0,0,0-.938-1.02,7.375,7.375,0,0,0-1.117-.82,6.748,6.748,0,0,0-1.258-.586,6.669,6.669,0,0,1,.508.828,8.5,8.5,0,0,1,.4.9,9.438,9.438,0,0,1,.3.941q.125.477.219.945Zm-4.031,9.617a6.621,6.621,0,0,0,1.258-.585,7.251,7.251,0,0,0,1.117-.821,7.043,7.043,0,0,0,.938-1.019,6.677,6.677,0,0,0,.718-1.192h-2.6q-.094.469-.219.946a9.357,9.357,0,0,1-.3.941,8.3,8.3,0,0,1-.4.9A6.459,6.459,0,0,1,966.851,1792.021Zm4.711-6.617a6.934,6.934,0,0,0-.289-2h-2.836q.063.5.094,1c.02.331.031.666.031,1s-.011.674-.031,1-.052.663-.094,1h2.836A6.919,6.919,0,0,0,971.562,1785.4Z" transform="translate(-629.562 -1392.404)"/></g></svg>