<svg xmlns="http://www.w3.org/2000/svg" width="24" height="24" viewBox="0 0 24 24"><defs><style>.a,.b{fill:#e8af11;}.a{opacity:0;}</style></defs><g transform="translate(-331 -148)"><rect class="a" width="24" height="24" transform="translate(331 148)"/><path class="b" d="M334.362,405.021a2.669,2.669,0,0,1-.2,1,2.562,2.562,0,0,1-.571.86L323.307,417.17l-4.945,1.234,1.234-4.945,10.289-10.289a2.545,2.545,0,0,1,.86-.57,2.651,2.651,0,0,1,1-.2,2.538,2.538,0,0,1,1.015.207,2.653,2.653,0,0,1,1.395,1.4A2.538,2.538,0,0,1,334.362,405.021Zm-14.625,12.008,2.57-.64a2.536,2.536,0,0,0-.68-1.25,2.487,2.487,0,0,0-.57-.426,2.522,2.522,0,0,0-.68-.254Zm1.172-3.468a3.564,3.564,0,0,1,2.3,2.3l8.445-8.453-2.289-2.289Zm11.453-6.868q.2-.2.375-.367a2.791,2.791,0,0,0,.32-.363,1.691,1.691,0,0,0,.223-.414,1.517,1.517,0,0,0,.082-.52,1.549,1.549,0,0,0-.129-.629,1.688,1.688,0,0,0-.867-.867,1.549,1.549,0,0,0-.629-.129,1.522,1.522,0,0,0-.52.082,1.689,1.689,0,0,0-.414.223,2.789,2.789,0,0,0-.363.32q-.172.18-.367.375Z" transform="translate(16.638 -250.404)"/></g></svg>