<svg xmlns="http://www.w3.org/2000/svg" width="24" height="24" viewBox="0 0 24 24"><defs><style>.a{opacity:0;}</style></defs><g transform="translate(-323 -143)"><rect class="a" width="24" height="24" transform="translate(323 143)"/><path d="M951.362,1784.4v9h-12v-9h2v-2.922a4.126,4.126,0,0,1,.3-1.586,4.053,4.053,0,0,1,.843-1.3,3.964,3.964,0,0,1,1.27-.875,4.06,4.06,0,0,1,3.164,0,3.96,3.96,0,0,1,1.269.875,4.039,4.039,0,0,1,.844,1.3,4.144,4.144,0,0,1,.3,1.586v2.922Zm-1,1h-10v7h10Zm-8-1h6v-2.922a3.144,3.144,0,0,0-.227-1.191,3.089,3.089,0,0,0-.629-.98,2.972,2.972,0,0,0-4.289,0,3.089,3.089,0,0,0-.629.98,3.143,3.143,0,0,0-.226,1.191Z" transform="translate(-610.362 -1630.404)"/></g></svg>